<svg width="21" height="21" viewBox="0 0 21 21" fill="none" xmlns="http://www.w3.org/2000/svg">
<path d="M17.847 8.93839C17.8516 6.23145 16.6269 3.66806 14.5177 1.97132C12.4085 0.273665 9.64261 -0.373955 6.99887 0.210339C4.35607 0.793706 2.12031 2.54659 0.921849 4.97406C-0.276561 7.40154 -0.308213 10.2416 0.836829 12.6955C1.98097 15.1494 4.17704 16.9501 6.80711 17.5921C9.43719 18.2343 12.2166 17.6482 14.363 15.9976L19.1332 20.7678L20.7703 19.1307L16.0001 14.3605L15.9992 14.3614C17.1994 12.8076 17.8488 10.901 17.847 8.93826L17.847 8.93839ZM8.93988 15.5301C7.19066 15.531 5.51284 14.8364 4.27549 13.6C3.03813 12.3636 2.34356 10.6859 2.34356 8.93656C2.34265 7.18734 3.03818 5.51045 4.27456 4.2731C5.51187 3.03671 7.18874 2.34116 8.93803 2.34209C10.6873 2.34209 12.3651 3.03671 13.6015 4.27402C14.8379 5.51133 15.5325 7.18912 15.5316 8.93842C15.5298 10.6858 14.8343 12.3608 13.5988 13.5973C12.3624 14.8327 10.6874 15.5283 8.93993 15.5301L8.93988 15.5301Z" fill="black"/>
</svg>
