<svg width="35" height="34" viewBox="0 0 35 34" fill="none" xmlns="http://www.w3.org/2000/svg">
<g opacity="0.7">
<path fill-rule="evenodd" clip-rule="evenodd" d="M35 15C35 17.2267 34.4339 19.3401 33.4185 21.2402C33.4103 21.2616 33.4013 21.283 33.3913 21.3043C31.514 25.3271 28.3888 28.6368 24.48 30.7415L20.1269 33.0855C19.0105 33.6867 17.6765 32.7936 17.807 31.5323L17.9661 29.9948C17.8112 29.9983 17.6558 30 17.5 30C7.83502 30 0 23.2843 0 15C0 6.71573 7.83502 0 17.5 0C27.165 0 35 6.71573 35 15ZM8.5 18C9.88071 18 11 16.8807 11 15.5C11 14.1193 9.88071 13 8.5 13C7.11929 13 6 14.1193 6 15.5C6 16.8807 7.11929 18 8.5 18ZM20 15.5C20 16.8807 18.8807 18 17.5 18C16.1193 18 15 16.8807 15 15.5C15 14.1193 16.1193 13 17.5 13C18.8807 13 20 14.1193 20 15.5ZM26.5 18C27.8807 18 29 16.8807 29 15.5C29 14.1193 27.8807 13 26.5 13C25.1193 13 24 14.1193 24 15.5C24 16.8807 25.1193 18 26.5 18Z" fill="white"/>
</g>
</svg>
