<svg width="35" height="29" viewBox="0 0 35 29" fill="none" xmlns="http://www.w3.org/2000/svg">
<path opacity="0.7" d="M33.8257 15.5463L21.8093 27.5627C21.3185 28.0536 20.5815 28.2 19.9394 27.9345C19.2989 27.6689 18.8805 27.0429 18.8805 26.3493V21.2269C7.4466 21.6163 2.96311 25.8117 2.91821 25.8566H2.9166C2.37428 26.3844 1.54873 26.4939 0.885702 26.127C0.222675 25.7584 -0.121692 25.0005 0.0392237 24.2602C0.0746273 24.0977 3.69226 8.62138 18.8803 7.52718V2.31656C18.8803 1.62297 19.2987 0.996978 19.9392 0.731421C20.5813 0.465893 21.3184 0.612336 21.8092 1.10316L33.8256 13.1195C34.1474 13.4414 34.3293 13.8775 34.3293 14.3329C34.3293 14.7884 34.1475 15.2245 33.8256 15.5463L33.8257 15.5463Z" fill="white"/>
</svg>
