<svg width="36" height="33" viewBox="0 0 36 33" fill="none" xmlns="http://www.w3.org/2000/svg">
<path opacity="0.7" d="M18.0001 33C17.5032 33 17.008 32.8148 16.601 32.4426C15.1578 31.1408 13.7587 29.8863 12.4952 28.8169C8.88641 25.6106 5.72871 22.8671 3.56297 20.1709C1.12775 17.1498 0 14.2685 0 11.1549C0 8.08658 0.99206 5.29766 2.84229 3.25352C4.69253 1.16197 7.26344 0 10.0599 0C12.1357 0 14.03 0.697183 15.6987 1.99896C16.555 2.69615 17.3233 3.48592 18 4.46272C18.6767 3.48592 19.4432 2.69615 20.3013 1.99896C21.97 0.65182 23.8643 0 25.9401 0C28.7366 0 31.2635 1.16197 33.1577 3.25352C35.0079 5.29785 36 8.1338 36 11.1549C36 14.3159 34.8722 17.1498 32.437 20.1709C30.2714 22.867 27.1136 25.6085 23.5048 28.8169C22.2872 29.8863 20.844 31.1408 19.399 32.4426C18.992 32.8148 18.4968 33 17.9999 33H18.0001Z" fill="white"/>
</svg>
