<svg width="17" height="20" viewBox="0 0 17 20" fill="none" xmlns="http://www.w3.org/2000/svg">
<path fill-rule="evenodd" clip-rule="evenodd" d="M8.50003 13.9737C4.79682 13.9737 1.98687 16.6366 1.98687 19.6974H0.0131836C0.0131836 15.3459 3.91896 12 8.50003 12C13.0811 12 16.9869 15.3459 16.9869 19.6974H15.0132C15.0132 16.6366 12.2032 13.9737 8.50003 13.9737Z" fill="white"/>
<path fill-rule="evenodd" clip-rule="evenodd" d="M8.5 9C10.433 9 12 7.433 12 5.5C12 3.567 10.433 2 8.5 2C6.567 2 5 3.567 5 5.5C5 7.433 6.567 9 8.5 9ZM8.5 11C11.5376 11 14 8.53757 14 5.5C14 2.46243 11.5376 0 8.5 0C5.46243 0 3 2.46243 3 5.5C3 8.53757 5.46243 11 8.5 11Z" fill="white"/>
</svg>
