<svg width="45" height="28" viewBox="0 0 45 28" fill="none" xmlns="http://www.w3.org/2000/svg">
<rect width="36" height="28" rx="8" fill="#65D2E9"/>
<rect x="9" width="36" height="28" rx="8" fill="#E6436D"/>
<rect x="4" width="36" height="28" rx="8" fill="white"/>
<path d="M21.5263 7C20.974 7 20.5263 7.44772 20.5263 8V12.5263H16C15.4477 12.5263 15 12.974 15 13.5263V14.4737C15 15.026 15.4477 15.4737 16 15.4737H20.5263V20C20.5263 20.5523 20.974 21 21.5263 21H22.4737C23.026 21 23.4737 20.5523 23.4737 20V15.4737H28C28.5523 15.4737 29 15.026 29 14.4737V13.5263C29 12.974 28.5523 12.5263 28 12.5263H23.4737V8C23.4737 7.44771 23.026 7 22.4737 7H21.5263Z" fill="black"/>
</svg>
