<svg width="17" height="20" viewBox="0 0 17 20" fill="none" xmlns="http://www.w3.org/2000/svg">
<path fill-rule="evenodd" clip-rule="evenodd" d="M8.48684 13.9737C4.78364 13.9737 1.97368 16.6366 1.97368 19.6974H0C0 15.3459 3.90577 12 8.48684 12C13.0679 12 16.9737 15.3459 16.9737 19.6974H15C15 16.6366 12.19 13.9737 8.48684 13.9737Z" fill="#13151A"/>
<path fill-rule="evenodd" clip-rule="evenodd" d="M8.48682 9C10.4198 9 11.9868 7.433 11.9868 5.5C11.9868 3.567 10.4198 2 8.48682 2C6.55382 2 4.98682 3.567 4.98682 5.5C4.98682 7.433 6.55382 9 8.48682 9ZM8.48682 11C11.5244 11 13.9868 8.53757 13.9868 5.5C13.9868 2.46243 11.5244 0 8.48682 0C5.44925 0 2.98682 2.46243 2.98682 5.5C2.98682 8.53757 5.44925 11 8.48682 11Z" fill="#13151A"/>
</svg>
