<svg width="21" height="20" viewBox="0 0 21 20" fill="none" xmlns="http://www.w3.org/2000/svg">
<path d="M6.5 9H14" stroke="black" stroke-width="2" stroke-linecap="round"/>
<path fill-rule="evenodd" clip-rule="evenodd" d="M17.9195 16.7742H13.7262C12.7167 16.7742 11.609 20 10.5005 20C9.39994 20 8.29854 16.7742 7.29525 16.7742H3.08138C1.83372 16.7742 0.82328 15.7629 0.82328 14.5161L0.822388 2.2581C0.822388 1.01133 1.83372 0 3.08048 0H17.9195C19.1663 0 20.1776 1.01133 20.1776 2.2581V14.5161C20.1776 15.7629 19.1672 16.7742 17.9195 16.7742H17.9195ZM18.8872 2.58083C18.8872 1.86826 18.3093 1.29037 17.5967 1.29037H3.40329C2.69072 1.29037 2.11283 1.86826 2.11283 2.58083V14.1941C2.11283 14.9067 2.69072 15.4846 3.40329 15.4846H7.93907C8.77025 15.4846 9.6148 18.3884 10.4995 18.3884C11.3503 18.3884 12.2395 15.4846 13.0404 15.4846H17.5967C18.3093 15.4846 18.8872 14.9067 18.8872 14.1941V2.58083Z" fill="#13151A"/>
</svg>
